<?xml version="1.0" encoding="utf-8"?>
<!-- Generator: Adobe Illustrator 28.1.0, SVG Export Plug-In . SVG Version: 6.00 Build 0)  -->
<svg version="1.1" id="Layer_1" xmlns="http://www.w3.org/2000/svg" xmlns:xlink="http://www.w3.org/1999/xlink" x="0px" y="0px"
	 viewBox="0 0 459 135" style="enable-background:new 0 0 459 135;" xml:space="preserve">
<path d="M423.57,94.25c0.01,0.01,0,0.03-0.01,0.03l-18.58,0c-0.83,0-1.64-0.33-2.23-0.92l-20.21-20.23h-7.03
	c-0.01,0-0.02-0.01-0.02-0.02v18.03c0,1.73-1.4,3.13-3.13,3.13l-7.83,0c-1.73,0-3.13-1.4-3.13-3.13V41.01c0-1.73,1.4-3.13,3.13-3.13
	l10.96,0v0.02c0-0.01,0.01-0.02,0.02-0.02l20.81,0c9.67,0,17.76,7.67,17.91,17.34c0.13,8.09-5.19,14.95-12.52,17.16l0.75,0.75
	L423.57,94.25z M392.92,48.45l-17.41,0c-0.01,0-0.02-0.01-0.02-0.02v14.13c0-0.01,0.01-0.02,0.02-0.02l17.59,0
	c3.97,0,7.17-3.29,7.04-7.29C400.02,51.43,396.75,48.45,392.92,48.45z M310.01,94.28h-5.35c-1.73,0-3.13-1.4-3.13-3.13l0-50.13
	c0-1.73,1.4-3.13,3.13-3.13l10.96,0l38.74,0l0,10.58l-38.74,0v14.1l31.7,0l0,10.58l-31.7,0V83.7l38.74,0v10.57l-38.74,0H310.01z
	 M294.49,79.88c0.16,9.87-7.78,17.93-17.61,17.93l-25.67,0c-0.83,0-1.63-0.33-2.21-0.92l-12.25-12.26
	c-0.59-0.59-0.92-1.38-0.92-2.22l0-41.39c0-1.73,1.4-3.13,3.13-3.13l10.96,0l26.97,0c9.73,0,17.61,7.89,17.61,17.62
	c0,4.83-1.94,9.21-5.09,12.39C292.47,70.99,294.41,75.2,294.49,79.88z M273.36,48.45l-23.45,0l0,14.1l23.45,0
	c3.89,0,7.04-3.16,7.04-7.05C280.4,51.61,277.25,48.45,273.36,48.45z M273.36,73.13l-23.45,0v14.1l23.45,0
	c3.89,0,7.04-3.16,7.04-7.05C280.4,76.28,277.25,73.13,273.36,73.13z M226.55,101.33c-0.83,0-1.63-0.33-2.21-0.92l-20.21-20.23
	l-7.04-7.05l-3.52-3.52l-25.86-25.88l0,50.56l-10.96,0c-1.73,0-3.13-1.4-3.13-3.13l0-50.13c0-1.73,1.4-3.13,3.13-3.13l5.12,0h5.84
	l12.79,0c0.83,0,1.63,0.33,2.21,0.92l30.78,30.81l3.52,3.52l7.04,7.05l21.13,21.15L226.55,101.33z M152.4,94.28l-18.63,0
	c-0.83,0-1.63-0.33-2.21-0.92l-20.21-20.23l-7.04,0l0,18.02c0,1.73-1.4,3.13-3.13,3.13h-7.83c-1.73,0-3.13-1.4-3.13-3.13l0-44.92
	c0-0.83,0.33-1.63,0.92-2.22l5.21-5.21c0.59-0.59,1.38-0.92,2.21-0.92l5.75,0l24.65,0c9.73,0,17.61,7.89,17.61,17.62
	c0,9-6.74,16.41-15.43,17.49l0.14,0.14L152.4,94.28z M132.47,55.5c0-3.89-3.15-7.05-7.04-7.05l-21.13,0l0,14.1l21.13,0
	C129.32,62.55,132.47,59.4,132.47,55.5z M85.48,94.28l-18.63,0c-0.83,0-1.63-0.33-2.21-0.92l0.2,0.2l-0.2-0.2L40.9,69.6l0,24.67
	H29.94c-1.73,0-3.13-1.4-3.13-3.13l0-50.13c0-1.73,1.4-3.13,3.13-3.13l10.96,0l0,24.67l23.74-23.76c0.59-0.59,1.38-0.92,2.21-0.92
	l18.63,0L57.3,66.08l0,0l3.52,3.52L85.48,94.28z"/>
<line style="fill:none;stroke:#27AAE1;stroke-miterlimit:10;" x1="0.05" y1="94.28" x2="459" y2="94.28"/>
<line style="fill:none;stroke:#27AAE1;stroke-miterlimit:10;" x1="0.05" y1="101.33" x2="459" y2="101.33"/>
<line style="fill:none;stroke:#27AAE1;stroke-miterlimit:10;" x1="0" y1="97.82" x2="458.95" y2="97.82"/>
<line style="fill:none;stroke:#27AAE1;stroke-miterlimit:10;" x1="0" y1="37.88" x2="459" y2="37.88"/>
<line style="fill:none;stroke:#27AAE1;stroke-miterlimit:10;" x1="0" y1="62.55" x2="459" y2="62.55"/>
<line style="fill:none;stroke:#27AAE1;stroke-miterlimit:10;" x1="0" y1="72.99" x2="459" y2="72.99"/>
<line style="fill:none;stroke:#27AAE1;stroke-miterlimit:10;" x1="0" y1="48.45" x2="459" y2="48.45"/>
<line style="fill:none;stroke:#27AAE1;stroke-miterlimit:10;" x1="67.3" y1="66.08" x2="131.51" y2="1.88"/>
<line style="fill:none;stroke:#27AAE1;stroke-miterlimit:10;" x1="57.3" y1="66.08" x2="121.51" y2="1.88"/>
<line style="fill:none;stroke:#27AAE1;stroke-miterlimit:10;" x1="40.9" y1="62.55" x2="105.1" y2="-1.65"/>
<line style="fill:none;stroke:#27AAE1;stroke-miterlimit:10;" x1="291.8" y1="147.9" x2="182.7" y2="38.8"/>
<line style="fill:none;stroke:#27AAE1;stroke-miterlimit:10;" x1="139.32" y1="148.1" x2="57.39" y2="66.16"/>
<line style="fill:none;stroke:#27AAE1;stroke-miterlimit:10;" x1="122.84" y1="151.54" x2="40.9" y2="69.6"/>
<line style="fill:none;stroke:#27AAE1;stroke-miterlimit:10;" x1="213.07" y1="154.93" x2="131.13" y2="72.99"/>
<line style="fill:none;stroke:#27AAE1;stroke-miterlimit:10;" x1="193.28" y1="155.07" x2="111.34" y2="73.13"/>
<line style="fill:none;stroke:#27AAE1;stroke-miterlimit:10;" x1="249.63" y1="125.66" x2="167.69" y2="43.72"/>
<line style="fill:none;stroke:#27AAE1;stroke-miterlimit:10;" x1="484.4" y1="155.07" x2="402.46" y2="73.13"/>
<line style="fill:none;stroke:#27AAE1;stroke-miterlimit:10;" x1="26.81" y1="135" x2="26.81" y2="0"/>
<line style="fill:none;stroke:#27AAE1;stroke-miterlimit:10;" x1="90.21" y1="135" x2="90.21" y2="26.05"/>
<line style="fill:none;stroke:#27AAE1;stroke-miterlimit:10;" x1="153.61" y1="135" x2="153.61" y2="0"/>
<line style="fill:none;stroke:#27AAE1;stroke-miterlimit:10;" x1="235.82" y1="140.23" x2="235.82" y2="0"/>
<line style="fill:none;stroke:#27AAE1;stroke-miterlimit:10;" x1="301.53" y1="136.73" x2="301.53" y2="0"/>
<line style="fill:none;stroke:#27AAE1;stroke-miterlimit:10;" x1="361.41" y1="135" x2="361.41" y2="0"/>
<line style="fill:none;stroke:#27AAE1;stroke-miterlimit:10;" x1="375.5" y1="135" x2="375.5" y2="0"/>
<line style="fill:none;stroke:#27AAE1;stroke-miterlimit:10;" x1="354.36" y1="135" x2="354.36" y2="0"/>
<line style="fill:none;stroke:#27AAE1;stroke-miterlimit:10;" x1="347.13" y1="136.73" x2="347.13" y2="0"/>
<line style="fill:none;stroke:#27AAE1;stroke-miterlimit:10;" x1="249.91" y1="134.63" x2="249.91" y2="0"/>
<line style="fill:none;stroke:#27AAE1;stroke-miterlimit:10;" x1="167.69" y1="134.63" x2="167.69" y2="0"/>
<line style="fill:none;stroke:#27AAE1;stroke-miterlimit:10;" x1="104.3" y1="134.72" x2="104.3" y2="1.15"/>
<line style="fill:none;stroke:#27AAE1;stroke-miterlimit:10;" x1="40.9" y1="134.73" x2="40.9" y2="0"/>
</svg>
