<?xml version="1.0" encoding="utf-8"?>
<!-- Generator: Adobe Illustrator 28.1.0, SVG Export Plug-In . SVG Version: 6.00 Build 0)  -->
<svg version="1.1" id="Layer_1" xmlns="http://www.w3.org/2000/svg" xmlns:xlink="http://www.w3.org/1999/xlink" x="0px" y="0px"
	 viewBox="0 0 423 90" style="enable-background:new 0 0 423 90;" xml:space="preserve">
<path d="M414.57,73.42c0.01,0.01,0,0.03-0.01,0.03l-18.58,0c-0.83,0-1.64-0.33-2.23-0.92L373.54,52.3h-7.03
	c-0.01,0-0.02-0.01-0.02-0.02v18.03c0,1.73-1.4,3.13-3.13,3.13h-7.83c-1.73,0-3.13-1.4-3.13-3.13V20.19c0-1.73,1.4-3.13,3.13-3.13
	l10.96,0v0.02c0-0.01,0.01-0.02,0.02-0.02l20.81,0c9.67,0,17.76,7.67,17.91,17.34c0.13,8.09-5.19,14.95-12.52,17.16l0.75,0.75
	L414.57,73.42z M383.92,27.63l-17.41,0c-0.01,0-0.02-0.01-0.02-0.02v14.13c0-0.01,0.01-0.02,0.02-0.02l17.59,0
	c3.97,0,7.17-3.29,7.04-7.29C391.02,30.61,387.75,27.63,383.92,27.63z M301.01,73.45h-5.35c-1.73,0-3.13-1.4-3.13-3.13l0-50.13
	c0-1.73,1.4-3.13,3.13-3.13l10.96,0l38.74,0l0,10.58l-38.74,0v14.1l31.7,0l0,10.58l-31.7,0v10.57l38.74,0v10.57l-38.74,0
	L301.01,73.45z M285.49,59.05c0.16,9.87-7.78,17.93-17.61,17.93l-25.67,0c-0.83,0-1.63-0.33-2.21-0.92L227.74,63.8
	c-0.59-0.59-0.92-1.38-0.92-2.22l0-41.39c0-1.73,1.4-3.13,3.13-3.13l10.96,0l26.97,0c9.73,0,17.61,7.89,17.61,17.62
	c0,4.83-1.94,9.21-5.09,12.39C283.47,50.17,285.41,54.37,285.49,59.05z M264.36,27.63l-23.45,0l0,14.1l23.45,0
	c3.89,0,7.04-3.16,7.04-7.05C271.4,30.79,268.25,27.63,264.36,27.63z M264.36,52.3l-23.45,0v14.1l23.45,0
	c3.89,0,7.04-3.16,7.04-7.05C271.4,55.46,268.25,52.3,264.36,52.3z M217.55,80.5c-0.83,0-1.63-0.33-2.21-0.92l-20.21-20.23
	l-7.04-7.05l-3.52-3.52l-25.86-25.88l0,50.56h-10.96c-1.73,0-3.13-1.4-3.13-3.13l0-50.13c0-1.73,1.4-3.13,3.13-3.13h5.12l5.84,0
	l12.79,0c0.83,0,1.63,0.33,2.21,0.92l30.78,30.81L208,52.3l7.04,7.05l21.13,21.15L217.55,80.5z M143.4,73.45l-18.63,0
	c-0.83,0-1.63-0.33-2.21-0.92L102.34,52.3l-7.04,0l0,18.02c0,1.73-1.4,3.13-3.13,3.13h-7.83c-1.73,0-3.13-1.4-3.13-3.13l0-44.92
	c0-0.83,0.33-1.63,0.92-2.22l5.21-5.21c0.59-0.59,1.38-0.92,2.21-0.92l5.75,0l24.65,0c9.73,0,17.61,7.89,17.61,17.62
	c0,9-6.74,16.41-15.43,17.49l0.14,0.14L143.4,73.45z M123.47,34.68c0-3.89-3.15-7.05-7.04-7.05l-21.13,0l0,14.1l21.13,0
	C120.32,41.73,123.47,38.57,123.47,34.68z M76.48,73.45H57.85c-0.83,0-1.63-0.33-2.21-0.92l0.2,0.2l-0.2-0.2L31.9,48.78l0,24.67
	l-10.96,0c-1.73,0-3.13-1.4-3.13-3.13l0-50.13c0-1.73,1.4-3.13,3.13-3.13l10.96,0l0,24.67l23.74-23.76
	c0.59-0.59,1.38-0.92,2.21-0.92l18.63,0L48.3,45.25l0,0l3.52,3.52L76.48,73.45z"/>
</svg>
