<?xml version="1.0" encoding="utf-8"?>
<!-- Generator: Adobe Illustrator 26.0.2, SVG Export Plug-In . SVG Version: 6.00 Build 0)  -->
<svg version="1.1" id="Layer_1" xmlns="http://www.w3.org/2000/svg" xmlns:xlink="http://www.w3.org/1999/xlink" x="0px" y="0px"
	 viewBox="0 0 741 273" style="enable-background:new 0 0 741 273;" xml:space="preserve">
<path d="M162.87,223.36c-39.99-23.86-70.59-73.09-64.46-120.71c2.23-8.34,2.11-21.72,12.99-23.27c7.05-0.57,11.89,6.16,10.55,12.29
	c-0.03,11.48,2.66,22.92,5.46,34.03c7.73,29.63,31.31,49.65,54.29,67.73c12.3,13.75,6.56,30.26-8.21,31.45
	C170.34,225.13,166.77,224.68,162.87,223.36z"/>
<path d="M105.29,191.97c-13.11-2.13-37.84-7.26-34.29-25.04c1.06-3.24,3.65-6.01,6.88-7.14c4.19-1.43,8.15-0.12,12.18,1.02
	c8.19,2.18,16.71,2.46,25.1,1.44c55.91-6.32,116.5-82.83,34.12-104.52c-34.22-9.88-72.39,1.54-94.18,30.05
	c-15.4,23.75-53.33,24.01-42.53-11.72c22.26-40.87,69.65-66.01,116-63.49c63.14,0.36,130.47,56.93,89.32,121.22
	c-19.92,32.05-55.95,55.32-93.83,58.37C117.84,192.66,111.56,192.61,105.29,191.97z"/>
<path d="M261.34,213.36c-16.44-30.56-23.05-69-20.17-103.56c1.23-7.5,0.52-17.01,7-22.17c3.52-2.73,8.98-2.41,12.28,0.5
	c4.2,3.63,3.92,9.2,4.52,12.78c3.86,34.07,18.19,65.62,27.42,98.19c1.15,13.01-5.66,21.83-14.44,22.54
	C272.69,222.06,266.73,219.58,261.34,213.36z"/>
<path d="M247.58,71.14c-22.91-7.37-15.46-52.78,10-45.97c22.04,6.48,17.59,45.18-2.82,46.83C252.55,72.18,250.15,71.92,247.58,71.14
	z"/>
<path d="M308.02,170.33c-21.43-30.97-27.03-68.12-21.55-104.6c0.63-6.55,2.93-13.21,8.07-17.56c10.72-10.57,20.7,0.9,21.74,12.52
	c-2.89,30.51-0.93,61.56,8.41,90.66c1.94,8.43,11.21,20.48,1.14,26.84c-1.31,0.74-2.62,1.13-3.9,1.24
	C316.38,179.87,311.21,174.96,308.02,170.33z"/>
<path d="M363.44,146.63c2.01-7.9,4.39-15.72,5.65-21.05c3.78-17.38,6.97-35.14,6.55-53c0.32-30.27-27.4,3.97-32.8,14.85
	c-8.05,16.4-11.48,34.69-13.17,52.8c-1.22,10.76-0.39,21.7-0.35,32.36c-2.67,9.13-15.98,8.04-18.3-0.81
	c-12.46-43.68,3.95-93.74,34.81-126.01c52.7-47,76.27,29.58,64.76,73.33c-5.37,21.11-3.94,56.34-31.73,59.98
	C364.34,177.73,360.19,158.37,363.44,146.63z"/>
<path d="M529.8,118.89c5.96-29.15-20.01-76.42-53.62-59.7c-35.18,20.58-26.26,87.09,19.41,82.88
	C511.46,141.69,519.13,127.96,529.8,118.89z M434.32,256c-24.3-3.42-48.6-18.63-58.25-41.75c-3.83-10.13-1.09-24.42,11.21-26.76
	c9.84-1.89,15.59,6.01,21.28,12.39c32.13,33.91,85.28,2.38,105.15-30.45c-40.95,19.89-91.89-11.5-93.42-56.76
	C414.85,53.7,483.74-3.95,533.06,44.9c37.19,33.17,35.79,89.59,17.82,132.42c-16.24,42.19-57.19,74.87-102.37,78.5
	C443.81,256.2,439.08,256.27,434.32,256z"/>
<path d="M564.7,148.55c-0.06,0.4-0.12,0.8-0.17,1.19c-0.09,0.6-0.21,1.2-0.31,1.8C564.38,150.55,564.54,149.56,564.7,148.55z"/>
<path d="M564.78,148.01c-0.03,0.18-0.06,0.36-0.08,0.54C564.73,148.37,564.76,148.19,564.78,148.01z"/>
<path d="M570.39,126.73c-0.11,0.4-0.22,0.78-0.33,1.18c-0.14,0.35-0.31,0.7-0.45,1.05C569.86,128.21,570.11,127.46,570.39,126.73z"
	/>
<path d="M686.24,207.66c-50-16.17,2.55-100.56,1.44-138.43c0.89-17.64-17.73-14.65-27.37-6.57c-6.95,10.79-23.45,2.09-18.84-9.94
	c13.49-24.53,55.78-31.98,71.99-6.23c17.89,30.68,7.16,50.22,2.55,82.5c-4.04,20.34-4.18,23.18-4.21,43.95
	c1.05,13.87-7.04,33.5-22.29,34.73C688.44,207.76,687.36,207.76,686.24,207.66z"/>
<path d="M615.34,111.81c-23.33,16.06-15.97,53.22,15.59,47.85c11.4-0.42,19.76-7.25,27.99-14.06c8.29-6.85,16.44-13.7,27.45-14
	c-8.84-17.79-30.43-28.53-50.33-26.94C628.65,105.27,621.51,107.56,615.34,111.81z M624.79,194.77
	c-64.2-2.11-73.67-81.45-20.4-109.5c31.51-16.68,82.2-5.8,95.9,29.44c2.07,6.58,4.3,17.12-3.32,20.85
	c14.3,21.15-15.35,38.22-30.19,48.51c-10.22,5.96-21.89,9.51-33.68,10.46C630.33,194.76,627.55,194.84,624.79,194.77z"/>
</svg>
