<?xml version="1.0" encoding="utf-8"?>
<!-- Generator: Adobe Illustrator 25.3.0, SVG Export Plug-In . SVG Version: 6.00 Build 0)  -->
<svg version="1.1" id="Layer_1" xmlns="http://www.w3.org/2000/svg" xmlns:xlink="http://www.w3.org/1999/xlink" x="0px" y="0px"
	 viewBox="0 0 351 108" style="enable-background:new 0 0 351 108;" xml:space="preserve">
<g>
	<path d="M135.73,14.5c-10.55,0-20.47,4.11-27.93,11.57c-6.63,6.63-10.6,15.2-11.41,24.43h-21.5L54.73,10.17L34.56,50.5H18.73v7
		h12.34L15.6,88.43l6.26,3.13L38.89,57.5h31.67L87.6,91.57l6.26-3.13L78.39,57.5h18c0.81,9.23,4.78,17.8,11.41,24.43
		c7.46,7.46,17.38,11.57,27.93,11.57c10.55,0,20.47-4.11,27.93-11.57l-4.95-4.95c-6.14,6.14-14.3,9.52-22.98,9.52
		s-16.84-3.38-22.98-9.52c-5.31-5.31-8.55-12.12-9.33-19.48h5.31h63h3.5V54c0-10.55-4.11-20.47-11.57-27.93
		C156.2,18.61,146.28,14.5,135.73,14.5z M42.39,50.5l12.34-24.67L67.06,50.5H42.39z M108.73,50.5h-5.31
		c0.78-7.36,4.02-14.18,9.33-19.48c6.14-6.14,14.3-9.52,22.98-9.52s16.84,3.38,22.98,9.52c5.31,5.31,8.55,12.12,9.33,19.48H108.73z"
		/>
	<path d="M216.73,14.5c-10.55,0-20.47,4.11-27.93,11.57S177.23,43.45,177.23,54v36h7V54c0-8.68,3.38-16.84,9.52-22.98
		c6.14-6.14,14.3-9.52,22.98-9.52s16.84,3.38,22.98,9.52c5.31,5.31,8.55,12.12,9.33,19.48h-40.77l41.98,41.98l4.95-4.95L225.18,57.5
		h31.05V54c0-10.55-4.11-20.47-11.57-27.93C237.2,18.61,227.28,14.5,216.73,14.5z"/>
	<path d="M297.73,14.5c-21.78,0-39.5,17.72-39.5,39.5s17.72,39.5,39.5,39.5s39.5-17.72,39.5-39.5S319.51,14.5,297.73,14.5z
		 M297.73,86.5c-17.92,0-32.5-14.58-32.5-32.5s14.58-32.5,32.5-32.5s32.5,14.58,32.5,32.5S315.65,86.5,297.73,86.5z"/>
</g>
</svg>
