<svg xmlns="http://www.w3.org/2000/svg" viewBox="0 0 80 80"><rect x="-10" y="-5" width="206" height="94" style="fill:#dabe33"/><polygon points="35.43 18.29 35.43 9.15 17.14 9.15 17.14 18.29 17.14 27.44 26.28 27.44 26.28 18.29 35.43 18.29" style="fill:#fff"/><polygon points="26.28 36.58 53.72 42.68 53.72 33.53 26.28 27.44 26.28 36.58" style="fill:#fff"/><polygon points="26.28 51.83 53.72 57.92 53.72 48.78 26.28 42.68 26.28 51.83" style="fill:#fff"/><polygon points="26.28 67.07 53.72 73.17 53.72 64.02 26.28 57.92 26.28 67.07" style="fill:#fff"/><polygon points="44.57 9.15 44.57 18.29 53.72 18.29 53.72 27.44 62.86 27.44 62.86 18.29 62.86 9.15 44.57 9.15" style="fill:#fff"/></svg>