<svg xmlns="http://www.w3.org/2000/svg" viewBox="0 0 355.93 109.75"><polygon points="36.58 27.44 36.58 18.29 18.29 18.29 18.29 27.44 18.29 36.58 27.44 36.58 27.44 27.44 36.58 27.44" style="fill:#dabe33"/><polygon points="27.44 45.73 54.87 51.83 54.87 42.68 27.44 36.58 27.44 45.73" style="fill:#dabe33"/><polygon points="27.44 60.97 54.87 67.07 54.87 57.92 27.44 51.83 27.44 60.97" style="fill:#dabe33"/><polygon points="27.44 76.21 54.87 82.31 54.87 73.17 27.44 67.07 27.44 76.21" style="fill:#dabe33"/><polygon points="45.73 18.29 45.73 27.44 54.87 27.44 54.87 36.58 64.02 36.58 64.02 27.44 64.02 18.29 45.73 18.29" style="fill:#dabe33"/><path d="M81.17,74.63H73.63V91.46H64.16v-46H81.24q8.15,0,12.56,3.63t4.42,10.26a14.09,14.09,0,0,1-2,7.84,13.89,13.89,0,0,1-6.17,5L100,91v.44H89.79ZM73.63,67h7.64a7.8,7.8,0,0,0,5.52-1.81,6.51,6.51,0,0,0,2-5A6.93,6.93,0,0,0,86.9,55q-1.84-1.86-5.67-1.86H73.62V67Z"/><path d="M117.79,45.49,129.6,78.83l11.74-33.34h12.44v46h-9.5V78.89l.95-21.69L132.82,91.45h-6.5L114,57.23l1,21.66V91.45h-9.47v-46Z"/><path d="M173.17,52.82h-5.6V63.25h-2.09V51.11h7.69Z"/><path d="M182.47,63.26a4.25,4.25,0,0,1-.29-1.28,4.65,4.65,0,0,1-3.46,1.5,4.29,4.29,0,0,1-2.95-1,3.29,3.29,0,0,1-1.15-2.58,3.44,3.44,0,0,1,1.44-3,6.81,6.81,0,0,1,4.06-1h2v-1a2.33,2.33,0,0,0-.65-1.73,2.61,2.61,0,0,0-1.92-.65,3,3,0,0,0-1.86.56,1.65,1.65,0,0,0-.75,1.36h-2.09a2.89,2.89,0,0,1,.65-1.76,4.43,4.43,0,0,1,1.75-1.34,5.9,5.9,0,0,1,2.43-.49,4.8,4.8,0,0,1,3.29,1,3.8,3.8,0,0,1,1.24,2.89v5.59a6.71,6.71,0,0,0,.43,2.66v.18ZM179,61.67a3.61,3.61,0,0,0,1.85-.51,3.07,3.07,0,0,0,1.27-1.31V57.36h-1.63c-2.55,0-3.82.75-3.82,2.23a1.92,1.92,0,0,0,.65,1.53A2.52,2.52,0,0,0,179,61.67Z"/><path d="M197.44,51.11V63.26h-2.09V52.82h-4.13L191,57.37a9.92,9.92,0,0,1-1.05,4.48,3,3,0,0,1-2.69,1.4h-.83V61.42l.59,0a1.71,1.71,0,0,0,1.45-1.17A13.23,13.23,0,0,0,189,56.3l.22-5.2Z"/><path d="M203,55.29h3.16a4.86,4.86,0,0,1,3.27,1.08,3.61,3.61,0,0,1,1.2,2.86,3.7,3.7,0,0,1-1.24,2.92,4.82,4.82,0,0,1-3.32,1.1H201V51.11h2.08v4.18Zm0,1.7v4.57h3.09a2.55,2.55,0,0,0,1.81-.6,2.14,2.14,0,0,0,.64-1.65,2.32,2.32,0,0,0-.62-1.66,2.42,2.42,0,0,0-1.75-.67H203Z"/><path d="M213.45,63.26V51.11h4.74a6.74,6.74,0,0,1,3.72.85,2.8,2.8,0,0,1,1.3,2.49A2.46,2.46,0,0,1,222.7,56a3.15,3.15,0,0,1-1.49,1A3.33,3.33,0,0,1,223,58a2.59,2.59,0,0,1,.67,1.8,3,3,0,0,1-1.23,2.56,5.89,5.89,0,0,1-3.48.89h-5.49Zm2.08-7h2.68c1.95,0,2.92-.57,2.92-1.71s-.92-1.73-2.76-1.76h-2.84Zm0,1.66v3.66H219a3.26,3.26,0,0,0,1.95-.48,1.59,1.59,0,0,0,.65-1.36c0-1.21-.89-1.82-2.67-1.82Z"/><path d="M233.9,63.26a4.25,4.25,0,0,1-.29-1.28,4.65,4.65,0,0,1-3.46,1.5,4.29,4.29,0,0,1-3-1,3.29,3.29,0,0,1-1.15-2.58,3.44,3.44,0,0,1,1.44-3,6.81,6.81,0,0,1,4.06-1h2v-1a2.33,2.33,0,0,0-.65-1.73,2.61,2.61,0,0,0-1.92-.65,3,3,0,0,0-1.86.56,1.65,1.65,0,0,0-.75,1.36H226.3a2.89,2.89,0,0,1,.65-1.76,4.43,4.43,0,0,1,1.75-1.34,5.9,5.9,0,0,1,2.43-.49,4.8,4.8,0,0,1,3.29,1,3.8,3.8,0,0,1,1.24,2.89v5.59a6.71,6.71,0,0,0,.43,2.66v.18Zm-3.45-1.59a3.61,3.61,0,0,0,1.85-.51,3.07,3.07,0,0,0,1.27-1.31V57.36h-1.63c-2.55,0-3.82.75-3.82,2.23a1.92,1.92,0,0,0,.65,1.53A2.52,2.52,0,0,0,230.45,61.67Z"/><path d="M248.84,63.26h-2.08V58.07h-5.58v5.19h-2.09V51.11h2.09v5.27h5.58V51.11h2.08Z"/><path d="M260,51.11h2.08V63.26H260V54.4l-5.6,8.86h-2.08V51.11h2.08V60Z"/><path d="M274.62,63.26h-2.09v-4.4a11,11,0,0,1-2.81.36,4.79,4.79,0,0,1-3.48-1.17A4.52,4.52,0,0,1,265,54.73V51.1h2.08v3.69c0,1.81.91,2.72,2.62,2.72a11,11,0,0,0,2.81-.36v-6h2.09V63.26Z"/><path d="M283,63.48a5.3,5.3,0,0,1-4-1.62,6,6,0,0,1-1.55-4.34v-.38a7.3,7.3,0,0,1,.69-3.23A5.3,5.3,0,0,1,280,51.69a4.81,4.81,0,0,1,2.69-.8,4.54,4.54,0,0,1,3.68,1.56,6.79,6.79,0,0,1,1.31,4.47v.86h-8.23a4.29,4.29,0,0,0,1.05,2.9,3.29,3.29,0,0,0,2.55,1.11,3.58,3.58,0,0,0,1.86-.45,4.73,4.73,0,0,0,1.34-1.19l1.27,1A5.07,5.07,0,0,1,283,63.48Zm-.26-10.89a2.77,2.77,0,0,0-2.11.92,4.49,4.49,0,0,0-1.06,2.57h6.09v-.16a3.93,3.93,0,0,0-.85-2.45A2.59,2.59,0,0,0,282.73,52.59Z"/><path d="M295,61.79a3,3,0,0,0,1.94-.67,2.38,2.38,0,0,0,.92-1.68h2a3.81,3.81,0,0,1-.72,2,4.65,4.65,0,0,1-1.77,1.5,5.17,5.17,0,0,1-2.34.56,5,5,0,0,1-3.95-1.66,6.58,6.58,0,0,1-1.47-4.53V57a7.44,7.44,0,0,1,.65-3.16,5,5,0,0,1,1.87-2.15,5.29,5.29,0,0,1,2.88-.76,4.91,4.91,0,0,1,3.4,1.22,4.4,4.4,0,0,1,1.44,3.18h-2a2.89,2.89,0,0,0-.89-1.94,2.82,2.82,0,0,0-2-.76,2.89,2.89,0,0,0-2.45,1.14,5.36,5.36,0,0,0-.87,3.3v.39a5.26,5.26,0,0,0,.86,3.23A2.92,2.92,0,0,0,295,61.79Z"/><path d="M306,58.08h-1.52v5.18h-2.09V51.11h2.09v5.14h1.36l4.09-5.14h2.52L307.6,57l5.21,6.31h-2.64Z"/><path d="M322.45,51.11h2.08V63.26h-2.08V54.4l-5.6,8.86h-2.08V51.11h2.08V60Z"/><path d="M332.91,63.48a5.3,5.3,0,0,1-4-1.62,6,6,0,0,1-1.55-4.34v-.38a7.3,7.3,0,0,1,.69-3.23A5.3,5.3,0,0,1,330,51.69a4.81,4.81,0,0,1,2.69-.8,4.54,4.54,0,0,1,3.68,1.56,6.79,6.79,0,0,1,1.31,4.47v.86h-8.23a4.29,4.29,0,0,0,1,2.9A3.3,3.3,0,0,0,333,61.79a3.61,3.61,0,0,0,1.86-.45,4.87,4.87,0,0,0,1.34-1.19l1.27,1A5.1,5.1,0,0,1,332.91,63.48Zm-.26-10.89a2.77,2.77,0,0,0-2.11.92,4.49,4.49,0,0,0-1.06,2.57h6.09v-.16a3.93,3.93,0,0,0-.85-2.45A2.59,2.59,0,0,0,332.65,52.59Z"/><path d="M175.26,90.86h-2.08V80.42h-5.59V90.85H165.5V78.71h9.76Z"/><path d="M178,84.67a7.14,7.14,0,0,1,.7-3.21,5.14,5.14,0,0,1,4.81-3,5.09,5.09,0,0,1,4,1.72,6.63,6.63,0,0,1,1.53,4.57v.15a7.27,7.27,0,0,1-.68,3.18,5.19,5.19,0,0,1-1.94,2.2,5.41,5.41,0,0,1-2.9.79,5.08,5.08,0,0,1-4-1.72A6.59,6.59,0,0,1,178,84.83Zm2.09.25a5.19,5.19,0,0,0,.94,3.25,3.19,3.19,0,0,0,5,0,5.71,5.71,0,0,0,.93-3.48,5.22,5.22,0,0,0-.95-3.24,3.16,3.16,0,0,0-5,0A5.64,5.64,0,0,0,180.13,84.92Z"/><path d="M195.49,85.68H194v5.18h-2.09V78.71H194v5.14h1.36l4.09-5.14h2.52l-4.81,5.84,5.21,6.31H199.7Z"/><path d="M214.39,84.92a7.25,7.25,0,0,1-1.27,4.47,4.08,4.08,0,0,1-3.44,1.7,4.45,4.45,0,0,1-3.48-1.4v5.85h-2.08V78.71H206l.1,1.35a4.28,4.28,0,0,1,3.53-1.57,4.12,4.12,0,0,1,3.46,1.65,7.41,7.41,0,0,1,1.27,4.59v.19Zm-2.07-.24a5.36,5.36,0,0,0-.88-3.25,2.82,2.82,0,0,0-2.4-1.19,3.06,3.06,0,0,0-2.83,1.67v5.81a3.05,3.05,0,0,0,2.85,1.66,2.82,2.82,0,0,0,2.38-1.19A5.85,5.85,0,0,0,212.32,84.68Z"/><path d="M219.3,82.89h3.16A4.86,4.86,0,0,1,225.73,84a3.61,3.61,0,0,1,1.2,2.86,3.7,3.7,0,0,1-1.24,2.92,4.82,4.82,0,0,1-3.32,1.1h-5.14V78.71h2.08v4.18Zm0,1.7v4.57h3.09a2.55,2.55,0,0,0,1.81-.6,2.14,2.14,0,0,0,.64-1.65,2.32,2.32,0,0,0-.62-1.66,2.42,2.42,0,0,0-1.75-.67H219.3Zm12,6.27h-2.09V78.71h2.09Z"/><path d="M243.92,80.39h-4.08V90.86h-2.08V80.39h-4V78.71h10.15v1.68Z"/><path d="M253.8,78.71h2.08V90.86H253.8V82l-5.6,8.86h-2.08V78.71h2.08v8.87Z"/><path d="M268.5,78.71V90.86h-2.09V86.13h-3.13l-2.86,4.73h-2.25l3.05-5a3.54,3.54,0,0,1-1.79-1.32,3.5,3.5,0,0,1-.62-2.08,3.3,3.3,0,0,1,1.25-2.68,5.16,5.16,0,0,1,3.34-1Zm-7.6,3.72a1.81,1.81,0,0,0,.61,1.43,2.38,2.38,0,0,0,1.61.56h3.3v-4h-3a2.79,2.79,0,0,0-1.84.57A1.82,1.82,0,0,0,260.9,82.43Z"/></svg>