<?xml version="1.0" encoding="utf-8"?>
<!-- Generator: Adobe Illustrator 26.0.2, SVG Export Plug-In . SVG Version: 6.00 Build 0)  -->
<svg version="1.1" id="Layer_1" xmlns="http://www.w3.org/2000/svg" xmlns:xlink="http://www.w3.org/1999/xlink" x="0px" y="0px"
	 viewBox="0 0 320 153" style="enable-background:new 0 0 320 153;" xml:space="preserve">
<path d="M5.47,134.6c-6.92-12.61-3.43-28.02,2.51-40.31c10.86-22.47,32.59-38.7,56.13-46.06c9.88-2.95,36.74-6.57,44.14,1.39
	c1.16,1.36,2,3.6,0.57,5.08c-5.23,5.42-13.37,1-19.87,1.23c-63.37-4.61-107.2,85.93-49.36,81.74
	c59.45-6.32,87.91-67.2,115.56-112.58c2.08-3.4,7.24-0.22,4.86,3.22c-4.38,7.79-7.92,16.05-12.16,23.92
	c-19.65,38.63-45.41,80.04-89.02,93.79C41.09,151.7,15.9,153.4,5.47,134.6z"/>
<path d="M215.06,46.59c0.82-1.11,1.54-2.06,2.15-3.23c-0.09-0.27-0.24-0.51-0.5-0.63c0,0,0,0,0,0c-0.97,0.38-2.05,0.74-2.7,1.61
	C213.85,45.27,214.42,45.98,215.06,46.59z M158.24,57.15c-2.63-6.93,0.93-14.58,6.03-19.36c2.63-2.2,4.79-5.9,8.29-6.6
	c1.74-0.1,3.26,1.38,3.28,3.12c-1.19,4.57-6.7,7.93-8.58,12.61c-0.8,2.17-2.1,5.34-0.59,7.38c3.6,0.65,6.9-2.41,9.64-4.41
	c3.43-3.23,7.07-6.46,9.61-10.45c1.51-3.77,7.23-2.25,6.27,1.79c0.01,0,0.01,0,0.02,0c-1.69,5.8-8.08,19.37-3.6,24.3
	c9.07,0.11,16.13-6.86,21.74-13.2c-7.21-6.46-2.22-16.38,6.89-16.27c6.05,0.8,8.59,8.41,4.61,12.9c10.63,1.41,20.44-4.8,30.19-6.45
	c2.47,0.38,4.44,2.87,3.64,5.39c-0.52,1.66-1.72,2.65-3.1,3.57c-4.8,3.07-9.96,5.51-14.65,8.76c-5.97,4.02-11.82,8.46-15.75,14.61
	c-1.59,3.14-5.05,6.43-4.32,10.14c5.23,6.39,19.78-3.3,24.34-7.59c5.31-4.85,10.33-10.05,15.08-15.44c1.33-1.7,2.99-4.01,5.46-2.96
	c4.47,2.18,0.33,6.98-0.6,10.17c-2.85,7.92-6.42,15.45-4.57,23.83c0.86,4.08,2.75,8.77,7.36,8.88c4.21-1.01,7.23-3.94,10.49-6.48
	c5.99-5.7,11.1-12.41,12.38-20.73c1.05-3.55,2.32-8.44,6.55-9.13c3.3-0.55,5.97,2.47,5.8,5.46c-0.14,2.11-0.38,4.21-0.64,6.31
	c-2.07,10.71,0.39,21.98,6.01,31.27c2.75,4.13,6.8,7.1,10.14,10.68c2.39,3.16,4.13,8.87,0.27,11.54c-5.77,3.07-11.5-1.56-15.26-5.68
	c-7.53-6.94-12.08-16.35-13.95-26.34c-19.64,24.14-43.64,12.86-37.62-17.23c-31.4,31.08-59.64,3.54-22.86-24.58
	c-2.56,0.02-5.13-0.19-7.68-0.65c-0.61-0.12-1.21-0.26-1.81-0.43c-3.94,4.83-8.14,9.54-13.36,13.02
	c-12.26,8.17-27.62,6.61-24.27-11.49C173.56,62.98,162.12,66.15,158.24,57.15z"/>
<path d="M146.11,6.19c2.73-5.7,8.38,0.23,13.14,0.49c5.72,1.5,13.41-0.66,17.12,5.14c1.91,3.02-1.35,6.14-4.09,7.07
	C166.47,21.47,143.02,14.72,146.11,6.19z"/>
</svg>
