<?xml version="1.0" encoding="utf-8"?>
<!-- Generator: Adobe Illustrator 28.1.0, SVG Export Plug-In . SVG Version: 6.00 Build 0)  -->
<svg version="1.1" id="Layer_1" xmlns="http://www.w3.org/2000/svg" xmlns:xlink="http://www.w3.org/1999/xlink" x="0px" y="0px"
	 viewBox="0 0 1314 522" style="enable-background:new 0 0 1314 522;" xml:space="preserve">
<rect x="45.09" y="63.55" style="opacity:0.1;fill:#EABA45;stroke:#000000;stroke-miterlimit:10;" width="396" height="396"/>
<circle style="opacity:0.1;fill:#ED1C24;" cx="639" cy="261" r="90"/>
<circle style="opacity:0.1;fill:#ED1C24;" cx="927" cy="261" r="90"/>
<circle style="opacity:0.1;fill:#ED1C24;" cx="1125" cy="261" r="90"/>
<circle style="opacity:0.1;fill:#ED1C24;" cx="639" cy="261" r="54"/>
<circle style="opacity:0.1;fill:#ED1C24;" cx="927" cy="261" r="54"/>
<circle style="opacity:0.1;fill:#ED1C24;" cx="1125" cy="261" r="54"/>
<rect x="477" y="27" style="opacity:0.1;fill:#ED1C24;" width="36" height="468"/>
<rect x="513" y="27" style="opacity:0.15;fill:#ED1C24;" width="36" height="468"/>
<rect x="693" y="27" style="opacity:0.1;fill:#ED1C24;" width="36" height="468"/>
<rect x="828" y="-252" transform="matrix(-1.836970e-16 1 -1 -1.836970e-16 999 -693)" style="opacity:0.1;fill:#ED1C24;" width="36" height="810"/>
<rect x="990" y="-126" transform="matrix(-1.836970e-16 1 -1 -1.836970e-16 1125 -891)" style="opacity:0.15;fill:#ED1C24;" width="36" height="486"/>
<rect x="990" y="162" transform="matrix(-1.836970e-16 1 -1 -1.836970e-16 1413 -602.9999)" style="opacity:0.1;fill:#ED1C24;" width="36" height="486"/>
<rect x="990" y="126" transform="matrix(-1.836970e-16 1 -1 -1.836970e-16 1377 -638.9999)" style="opacity:0.15;fill:#ED1C24;" width="36" height="486"/>
<rect x="765" y="27" style="opacity:0.1;fill:#ED1C24;" width="36" height="468"/>
<rect x="837" y="27" style="opacity:0.1;fill:#ED1C24;" width="36" height="468"/>
<rect x="981" y="27" style="opacity:0.1;fill:#ED1C24;" width="36" height="468"/>
<rect x="1035" y="27" style="opacity:0.1;fill:#ED1C24;" width="36" height="468"/>
<rect x="1179" y="27" style="opacity:0.1;fill:#ED1C24;" width="36" height="468"/>
<rect x="477" y="135" style="fill:none;stroke:#000000;stroke-miterlimit:10;" width="36" height="216"/>
<rect x="513" y="171" style="fill:none;stroke:#000000;stroke-miterlimit:10;" width="36" height="36"/>
<path style="fill:none;stroke:#000000;stroke-miterlimit:10;" d="M634.5,171c-47.22,0-85.5,40.29-85.5,90s38.28,90,85.5,90
	s85.5-40.29,85.5-90S681.72,171,634.5,171z M639,315c-29.82,0-54-24.18-54-54s24.18-54,54-54s54,24.18,54,54S668.82,315,639,315z"/>
<path style="fill:none;stroke:#000000;stroke-miterlimit:10;" d="M931.5,171c-47.22,0-85.5,40.29-85.5,90s38.28,90,85.5,90
	s85.5-40.29,85.5-90S978.72,171,931.5,171z M927,315c-29.82,0-54-24.18-54-54s24.18-54,54-54s54,24.18,54,54S956.82,315,927,315z"/>
<rect x="693" y="171" style="fill:none;stroke:#000000;stroke-miterlimit:10;" width="36" height="180"/>
<path style="fill:none;stroke:#000000;stroke-miterlimit:10;" d="M1120.5,171c-47.22,0-85.5,40.29-85.5,90s38.28,90,85.5,90
	s85.5-40.29,85.5-90S1167.72,171,1120.5,171z M1125,315c-29.82,0-54-24.18-54-54s24.18-54,54-54s54,24.18,54,54
	S1154.82,315,1125,315z"/>
<rect x="1179" y="171" style="fill:none;stroke:#000000;stroke-miterlimit:10;" width="36" height="180"/>
<rect x="765" y="99" style="fill:none;stroke:#000000;stroke-miterlimit:10;" width="36" height="252"/>
<rect x="837" y="171" style="fill:none;stroke:#000000;stroke-miterlimit:10;" width="36" height="252"/>
<g>
	<line style="fill:none;stroke:#000000;stroke-miterlimit:10;" x1="279.09" y1="261.01" x2="207.09" y2="261.01"/>
	<g>
		<g>
			<circle style="fill:none;stroke:#000000;stroke-miterlimit:10;" cx="243.09" cy="261.01" r="27"/>
			<circle style="fill:none;stroke:#000000;stroke-miterlimit:10;" cx="243.08" cy="369.01" r="27"/>
			<circle style="fill:none;stroke:#000000;stroke-miterlimit:10;" cx="312.51" cy="343.75" r="27"/>
			<circle style="fill:none;stroke:#000000;stroke-miterlimit:10;" cx="349.45" cy="279.78" r="27"/>
			<circle style="fill:none;stroke:#000000;stroke-miterlimit:10;" cx="243.09" cy="369.01" r="27"/>
			<circle style="fill:none;stroke:#000000;stroke-miterlimit:10;" cx="312.52" cy="343.75" r="27"/>
			<circle style="fill:none;stroke:#000000;stroke-miterlimit:10;" cx="349.47" cy="279.78" r="27"/>
			<circle style="fill:none;stroke:#000000;stroke-miterlimit:10;" cx="336.65" cy="207.05" r="27"/>
			<circle style="fill:none;stroke:#000000;stroke-miterlimit:10;" cx="280.06" cy="159.55" r="27"/>
			<circle style="fill:none;stroke:#000000;stroke-miterlimit:10;" cx="149.59" cy="207" r="27"/>
			<circle style="fill:none;stroke:#000000;stroke-miterlimit:10;" cx="136.75" cy="279.75" r="27"/>
			<circle style="fill:none;stroke:#000000;stroke-miterlimit:10;" cx="173.68" cy="343.74" r="27"/>
			<circle style="fill:none;stroke:#000000;stroke-miterlimit:10;" cx="206.19" cy="159.54" r="27"/>
		</g>
		<line style="fill:none;stroke:#000000;stroke-miterlimit:10;" x1="243.11" y1="297.02" x2="243.11" y2="225.02"/>
		<circle style="fill:none;stroke:#ED1C24;stroke-miterlimit:10;" cx="243.11" cy="315.02" r="27"/>
	</g>
</g>
<line style="stroke:#000000;stroke-miterlimit:10;" x1="27" y1="261" x2="1296" y2="261"/>
<line style="opacity:0.2;stroke:#000000;stroke-miterlimit:10;" x1="24.61" y1="135" x2="1293.61" y2="135"/>
<line style="opacity:0.2;stroke:#000000;stroke-miterlimit:10;" x1="24.61" y1="99" x2="1293.61" y2="99"/>
<line style="opacity:0.2;stroke:#000000;stroke-miterlimit:10;" x1="24.61" y1="63" x2="1293.61" y2="63"/>
<line style="opacity:0.2;stroke:#000000;stroke-miterlimit:10;" x1="24.61" y1="387" x2="1293.61" y2="387"/>
<line style="opacity:0.2;stroke:#000000;stroke-miterlimit:10;" x1="24.61" y1="351" x2="1293.61" y2="351"/>
<line style="opacity:0.2;stroke:#000000;stroke-miterlimit:10;" x1="24.61" y1="423" x2="1293.61" y2="423"/>
<line style="opacity:0.2;stroke:#000000;stroke-miterlimit:10;" x1="24.61" y1="459" x2="1293.61" y2="459"/>
</svg>
