<?xml version="1.0" encoding="utf-8"?>
<!-- Generator: Adobe Illustrator 28.1.0, SVG Export Plug-In . SVG Version: 6.00 Build 0)  -->
<svg version="1.1" id="Layer_1" xmlns="http://www.w3.org/2000/svg" xmlns:xlink="http://www.w3.org/1999/xlink" x="0px" y="0px"
	 viewBox="0 0 156 171.27" style="enable-background:new 0 0 156 171.27;" xml:space="preserve">
<g>
	<path style="fill:#F390BB;" d="M20.76,139.3C9.8,133.82,3,122.81,3,110.56V36.71L63.63,6.39C68.07,4.17,73.04,3,78,3
		s9.93,1.17,14.37,3.39L153,36.71v73.85c0,12.25-6.8,23.26-17.76,28.73L78,167.92L20.76,139.3z"/>
	<path style="fill:#332B27;" d="M78,6c4.46,0,8.93,1.02,13.02,3.07L150,38.56v72c0,11.03-6.23,21.12-16.1,26.05L78,164.56
		l-55.9-27.95C12.23,131.68,6,121.59,6,110.56v-72L64.98,9.07C69.07,7.02,73.54,6,78,6 M78,0c-5.42,0-10.86,1.28-15.71,3.71
		L3.32,33.2L0,34.85v3.71v72c0,13.39,7.44,25.43,19.42,31.42l55.9,27.95l2.68,1.34l2.68-1.34l55.9-27.95
		c11.98-5.99,19.42-18.03,19.42-31.42v-72v-3.71l-3.32-1.66L93.71,3.71C88.86,1.28,83.42,0,78,0L78,0z"/>
</g>
<polygon style="fill:#332B27;" points="6,56.56 6,74.56 78,110.56 150,74.56 150,56.56 78,92.56 "/>
<path style="fill:#F8BCD6;" d="M6,38.56l72,36l72-36L91.02,9.07c-8.2-4.1-17.85-4.1-26.05,0L6,38.56z"/>
<polygon style="fill:#332B27;" points="6,92.56 6,110.56 78,146.56 150,110.56 150,92.56 78,128.56 "/>
<polygon style="fill:#A0CE5B;" points="6,74.56 6,92.56 78,128.56 150,92.56 150,74.56 78,110.56 "/>
<path style="fill:#FFDB77;" d="M6,110.56L6,110.56c0,11.03,6.23,21.12,16.1,26.05L78,164.56l55.9-27.95
	c9.87-4.93,16.1-15.02,16.1-26.05v0l-72,36L6,110.56z"/>
<polygon style="fill:#CCE29D;" points="78,110.56 78,128.56 150,92.56 150,74.56 "/>
<polygon style="fill:#61534D;" points="78,128.56 78,146.56 150,110.56 150,92.56 "/>
<polygon style="fill:#61534D;" points="78,92.56 78,110.56 150,74.56 150,56.56 "/>
<polygon style="fill:#F8BCD6;" points="78,74.56 78,92.56 150,56.56 150,38.56 "/>
<path style="fill:#FBD8E7;" d="M6,38.56l72,36l72-36L91.02,9.07c-8.2-4.1-17.85-4.1-26.05,0L6,38.56z"/>
<path style="fill:#FFE8AF;" d="M78,146.56v18l55.9-27.95c9.87-4.93,16.1-15.02,16.1-26.05v0L78,146.56z"/>
</svg>
