<?xml version="1.0" encoding="utf-8"?>
<!-- Generator: Adobe Illustrator 28.1.0, SVG Export Plug-In . SVG Version: 6.00 Build 0)  -->
<svg version="1.1" id="Layer_1" xmlns="http://www.w3.org/2000/svg" xmlns:xlink="http://www.w3.org/1999/xlink" x="0px" y="0px"
	 viewBox="0 0 679.87 219.81" style="enable-background:new 0 0 679.87 219.81;" xml:space="preserve">
<g>
	<path style="fill:#F390BB;" d="M41.29,164.7c-10.95-5.48-17.76-16.49-17.76-28.73V62.11L84.17,31.8c4.44-2.22,9.41-3.39,14.37-3.39
		s9.93,1.17,14.37,3.39l60.63,30.32v73.85c0,12.25-6.8,23.26-17.76,28.73l-57.24,28.62L41.29,164.7z"/>
	<path style="fill:#332B27;" d="M98.53,31.4c4.46,0,8.93,1.02,13.02,3.07l58.98,29.49v72c0,11.03-6.23,21.12-16.1,26.05l-55.9,27.95
		l-55.9-27.95c-9.87-4.93-16.1-15.02-16.1-26.05v-72l58.98-29.49C89.61,32.43,94.07,31.4,98.53,31.4 M98.53,25.4
		c-5.42,0-10.86,1.28-15.71,3.71L23.85,58.6l-3.32,1.66v3.71v72c0,13.39,7.44,25.43,19.42,31.42l55.9,27.95l2.68,1.34l2.68-1.34
		l55.9-27.95c11.98-5.99,19.42-18.03,19.42-31.42v-72v-3.71l-3.32-1.66l-58.98-29.49C109.39,26.69,103.96,25.4,98.53,25.4
		L98.53,25.4z"/>
</g>
<polygon style="fill:#332B27;" points="26.53,81.97 26.53,99.97 98.53,135.97 170.53,99.97 170.53,81.97 98.53,117.97 "/>
<path style="fill:#F8BCD6;" d="M26.53,63.97l72,36l72-36l-58.98-29.49c-8.2-4.1-17.85-4.1-26.05,0L26.53,63.97z"/>
<polygon style="fill:#332B27;" points="26.53,117.97 26.53,135.97 98.53,171.97 170.53,135.97 170.53,117.97 98.53,153.97 "/>
<polygon style="fill:#A0CE5B;" points="26.53,99.97 26.53,117.97 98.53,153.97 170.53,117.97 170.53,99.97 98.53,135.97 "/>
<path style="fill:#FFDB77;" d="M26.53,135.97L26.53,135.97c0,11.03,6.23,21.12,16.1,26.05l55.9,27.95l55.9-27.95
	c9.87-4.93,16.1-15.02,16.1-26.05v0l-72,36L26.53,135.97z"/>
<polygon style="fill:#CCE29D;" points="98.53,135.97 98.53,153.97 170.53,117.97 170.53,99.97 "/>
<polygon style="fill:#61534D;" points="98.53,153.97 98.53,171.97 170.53,135.97 170.53,117.97 "/>
<polygon style="fill:#61534D;" points="98.53,117.97 98.53,135.97 170.53,99.97 170.53,81.97 "/>
<polygon style="fill:#F8BCD6;" points="98.53,99.97 98.53,117.97 170.53,81.97 170.53,63.97 "/>
<path style="fill:#FBD8E7;" d="M26.53,63.97l72,36l72-36l-58.98-29.49c-8.2-4.1-17.85-4.1-26.05,0L26.53,63.97z"/>
<path style="fill:#FFE8AF;" d="M98.53,171.97v18l55.9-27.95c9.87-4.93,16.1-15.02,16.1-26.05v0L98.53,171.97z"/>
<g>
	<path style="fill:#332B27;" d="M523.6,70.99l-6.13,3.06v7.48c0,1.15,0.65,2.19,1.67,2.71l5.81,2.9l5.81-2.9
		c1.02-0.51,1.67-1.56,1.67-2.71v-7.48l-6.13-3.06C525.46,70.56,524.46,70.56,523.6,70.99z"/>
</g>
<g>
	<path style="fill:#332B27;" d="M271.57,70.99l-6.13,3.06v7.48c0,1.15,0.65,2.19,1.67,2.71l5.81,2.9l5.81-2.9
		c1.02-0.51,1.67-1.56,1.67-2.71v-7.48l-6.13-3.06C273.42,70.56,272.42,70.56,271.57,70.99z"/>
</g>
<g>
	<path style="fill:#332B27;" d="M209.61,145.04V73.12h15.2v59.38h30.83v12.53H209.61z"/>
	<rect x="265.44" y="91.1" style="fill:#332B27;" width="14.96" height="53.94"/>
	<path style="fill:#332B27;" d="M327.98,165.26V136.4h-0.45c-0.7,1.5-1.69,2.98-2.97,4.44c-1.28,1.46-2.92,2.67-4.95,3.64
		c-2.02,0.96-4.49,1.44-7.39,1.44c-4.1,0-7.8-1.06-11.11-3.18c-3.31-2.12-5.93-5.24-7.86-9.37c-1.93-4.13-2.9-9.21-2.9-15.22
		c0-6.18,1-11.33,2.98-15.44c1.99-4.11,4.64-7.19,7.95-9.23c3.31-2.05,6.95-3.08,10.9-3.08c3.02,0,5.54,0.51,7.57,1.53
		c2.02,1.02,3.66,2.28,4.91,3.79s2.21,2.99,2.86,4.44h0.63V91.1h14.75v74.16H327.98z M316.95,134.01c2.41,0,4.45-0.66,6.13-1.98
		c1.67-1.32,2.96-3.18,3.86-5.57c0.9-2.39,1.35-5.18,1.35-8.39s-0.44-5.99-1.33-8.36c-0.89-2.37-2.18-4.19-3.86-5.48
		c-1.68-1.29-3.73-1.93-6.14-1.93c-2.46,0-4.53,0.67-6.22,2c-1.68,1.33-2.96,3.18-3.83,5.55c-0.87,2.37-1.3,5.11-1.3,8.22
		c0,3.14,0.44,5.91,1.32,8.31c0.88,2.4,2.15,4.27,3.83,5.62C312.43,133.34,314.49,134.01,316.95,134.01z"/>
	<path style="fill:#332B27;" d="M389.46,122.07V91.1h14.96v53.94h-14.36v-9.8h-0.56c-1.22,3.16-3.24,5.7-6.05,7.62
		c-2.82,1.92-6.26,2.88-10.31,2.88c-3.61,0-6.78-0.82-9.52-2.46c-2.74-1.64-4.87-3.97-6.41-6.99c-1.54-3.02-2.31-6.63-2.34-10.85
		V91.1h14.96v31.67c0.02,3.18,0.88,5.7,2.56,7.55c1.68,1.85,3.95,2.78,6.78,2.78c1.8,0,3.49-0.42,5.06-1.25
		c1.57-0.83,2.84-2.07,3.81-3.7S389.48,124.48,389.46,122.07z"/>
	<path style="fill:#332B27;" d="M440.72,146.09c-5.45,0-10.16-1.17-14.13-3.49c-3.97-2.33-7.03-5.58-9.18-9.76
		c-2.16-4.18-3.23-9.03-3.23-14.56c0-5.57,1.07-10.44,3.23-14.62c2.15-4.18,5.21-7.43,9.18-9.76c3.97-2.33,8.68-3.49,14.13-3.49
		c5.45,0,10.17,1.17,14.13,3.49c3.97,2.33,7.03,5.58,9.18,9.76c2.16,4.18,3.23,9.05,3.23,14.62c0,5.52-1.07,10.38-3.23,14.56
		c-2.15,4.18-5.21,7.43-9.18,9.76C450.89,144.92,446.18,146.09,440.72,146.09z M440.79,134.5c2.48,0,4.55-0.71,6.21-2.13
		c1.66-1.41,2.92-3.35,3.78-5.81c0.85-2.46,1.28-5.25,1.28-8.39c0-3.13-0.43-5.93-1.28-8.39c-0.86-2.46-2.11-4.4-3.78-5.83
		c-1.66-1.43-3.73-2.14-6.21-2.14c-2.5,0-4.61,0.71-6.3,2.14c-1.7,1.43-2.98,3.37-3.83,5.83c-0.85,2.46-1.28,5.26-1.28,8.39
		c0,3.14,0.43,5.94,1.28,8.39c0.85,2.46,2.13,4.4,3.83,5.81C436.19,133.79,438.29,134.5,440.79,134.5z"/>
	<path style="fill:#332B27;" d="M477.03,145.04V91.1h14.5v9.41h0.56c0.99-3.35,2.63-5.88,4.95-7.6c2.32-1.72,4.99-2.58,8.01-2.58
		c0.75,0,1.56,0.05,2.42,0.14c0.87,0.09,1.63,0.22,2.28,0.39v13.27c-0.7-0.21-1.67-0.4-2.91-0.56c-1.24-0.16-2.38-0.24-3.41-0.24
		c-2.2,0-4.16,0.47-5.88,1.42c-1.72,0.95-3.08,2.26-4.07,3.95c-1,1.68-1.49,3.63-1.49,5.83v30.51H477.03z"/>
	<rect x="517.44" y="91.1" style="fill:#332B27;" width="14.96" height="53.94"/>
	<path style="fill:#332B27;" d="M568.71,146.09c-5.52,0-10.27-1.18-14.24-3.53c-3.97-2.35-7.01-5.62-9.13-9.82
		c-2.12-4.19-3.18-9.01-3.18-14.47c0-5.52,1.07-10.38,3.21-14.56c2.14-4.18,5.19-7.44,9.15-9.8c3.96-2.35,8.66-3.53,14.11-3.53
		c4.71,0,8.83,0.86,12.36,2.56c3.53,1.71,6.33,4.11,8.39,7.2c2.06,3.09,3.2,6.72,3.41,10.89h-14.12c-0.4-2.69-1.45-4.86-3.14-6.52
		c-1.7-1.65-3.92-2.48-6.65-2.48c-2.32,0-4.34,0.63-6.06,1.88c-1.72,1.25-3.06,3.07-4.02,5.46c-0.96,2.39-1.44,5.28-1.44,8.67
		c0,3.44,0.47,6.37,1.42,8.78c0.95,2.41,2.29,4.25,4.02,5.51c1.73,1.27,3.76,1.9,6.07,1.9c1.71,0,3.25-0.35,4.62-1.05
		c1.37-0.7,2.5-1.73,3.4-3.07c0.9-1.35,1.49-2.97,1.77-4.86h14.12c-0.23,4.12-1.35,7.74-3.36,10.87c-2,3.13-4.76,5.57-8.27,7.32
		C577.66,145.21,573.5,146.09,568.71,146.09z"/>
	<path style="fill:#332B27;" d="M626.99,146.09c-5.55,0-10.32-1.13-14.31-3.39c-3.99-2.26-7.06-5.47-9.22-9.62
		c-2.16-4.16-3.23-9.08-3.23-14.77c0-5.55,1.07-10.42,3.23-14.61c2.15-4.19,5.19-7.46,9.11-9.8c3.92-2.34,8.53-3.51,13.82-3.51
		c3.56,0,6.88,0.57,9.96,1.7c3.08,1.14,5.77,2.84,8.08,5.11c2.3,2.27,4.1,5.12,5.39,8.55c1.29,3.43,1.93,7.44,1.93,12.03v4.11
		h-45.54v-9.27h31.46c0-2.15-0.47-4.06-1.4-5.73c-0.94-1.66-2.23-2.97-3.88-3.91c-1.65-0.95-3.57-1.42-5.74-1.42
		c-2.27,0-4.28,0.52-6.02,1.56c-1.74,1.04-3.11,2.44-4.09,4.18c-0.99,1.74-1.49,3.68-1.51,5.81v8.81c0,2.67,0.49,4.97,1.49,6.92
		c1,1.94,2.41,3.44,4.23,4.49c1.83,1.05,3.99,1.58,6.5,1.58c1.66,0,3.18-0.23,4.56-0.7c1.38-0.47,2.56-1.17,3.55-2.11
		c0.98-0.94,1.73-2.08,2.25-3.44l13.83,0.91c-0.7,3.32-2.14,6.22-4.3,8.69c-2.17,2.47-4.95,4.39-8.36,5.76
		C635.37,145.41,631.44,146.09,626.99,146.09z"/>
</g>
</svg>
